<svg width="18" height="18" viewBox="0 0 20 20" fill="none" xmlns="http://www.w3.org/2000/svg">
<path fill-rule="evenodd" clip-rule="evenodd" d="M9.11626 6.61668C9.35064 6.38259 9.66834 6.25111 9.99959 6.25111C10.3308 6.25111 10.6486 6.38259 10.8829 6.61668L15.5979 11.33C15.8323 11.5645 15.9639 11.8825 15.9639 12.2141C15.9638 12.5456 15.832 12.8635 15.5975 13.0979C15.363 13.3323 15.045 13.4639 14.7135 13.4639C14.3819 13.4638 14.064 13.332 13.8296 13.0975L9.99959 9.26751L6.16959 13.0975C5.93395 13.3253 5.61826 13.4515 5.29051 13.4488C4.96276 13.4461 4.64918 13.3148 4.41731 13.0831C4.18544 12.8515 4.05383 12.538 4.05083 12.2103C4.04783 11.8825 4.17367 11.5667 4.40126 11.3308L9.11543 6.61584L9.11626 6.61668Z" fill="white"/>
</svg>
